<svg width="100" height="24" viewBox="0 0 126 32" fill="none" xmlns="http://www.w3.org/2000/svg">
<path fill-rule="evenodd" clip-rule="evenodd" d="M32 17.9956H23.806C23.3619 19.716 22.3532 21.2409 20.939 22.3298C19.5247 23.4188 17.7853 24.0098 15.995 24.0098C14.2046 24.0098 12.4652 23.4188 11.051 22.3298C9.63669 21.2409 8.62801 19.716 8.18394 17.9956H0C0.490097 21.862 2.38615 25.4179 5.33217 27.9958C8.27819 30.5736 12.0715 31.9961 16 31.9961C19.9285 31.9961 23.7218 30.5736 26.6678 27.9958C29.6138 25.4179 31.5099 21.862 32 17.9956ZM32 13.9966H23.806C23.3619 12.2762 22.3532 10.7513 20.939 9.66236C19.5247 8.57343 17.7853 7.98237 15.995 7.98237C14.2046 7.98237 12.4652 8.57343 11.051 9.66236C9.63669 10.7513 8.62801 12.2762 8.18394 13.9966H0C0.490097 10.1302 2.38615 6.57428 5.33217 3.99642C8.27819 1.41856 12.0715 -0.00390625 16 -0.00390625C19.9285 -0.00390625 23.7218 1.41856 26.6678 3.99642C29.6138 6.57428 31.5099 10.1302 32 13.9966Z" fill="url(#paint0_linear_4286_25)"/>
<mask id="mask0_4286_25" style="mask-type:luminance" maskUnits="userSpaceOnUse" x="0" y="-1" width="32" height="33">
<path fill-rule="evenodd" clip-rule="evenodd" d="M32 17.9956H23.806C23.3619 19.716 22.3532 21.2409 20.939 22.3298C19.5247 23.4188 17.7853 24.0098 15.995 24.0098C14.2046 24.0098 12.4652 23.4188 11.051 22.3298C9.63669 21.2409 8.62801 19.716 8.18394 17.9956H0C0.490097 21.862 2.38615 25.4179 5.33217 27.9958C8.27819 30.5736 12.0715 31.9961 16 31.9961C19.9285 31.9961 23.7218 30.5736 26.6678 27.9958C29.6138 25.4179 31.5099 21.862 32 17.9956ZM32 13.9966H23.806C23.3619 12.2762 22.3532 10.7513 20.939 9.66236C19.5247 8.57343 17.7853 7.98237 15.995 7.98237C14.2046 7.98237 12.4652 8.57343 11.051 9.66236C9.63669 10.7513 8.62801 12.2762 8.18394 13.9966H0C0.490097 10.1302 2.38615 6.57428 5.33217 3.99642C8.27819 1.41856 12.0715 -0.00390625 16 -0.00390625C19.9285 -0.00390625 23.7218 1.41856 26.6678 3.99642C29.6138 6.57428 31.5099 10.1302 32 13.9966Z" fill="white"/>
</mask>
<g mask="url(#mask0_4286_25)">
<path d="M32 17.9954L33.0079 18.1153L33.1389 16.9956H32V17.9954ZM23.806 17.9954V16.9956H23.0299L22.8283 17.7454L23.806 17.9954ZM8.18392 17.9954L9.17164 17.7454L8.97006 16.9956H8.194V17.9954H8.18392ZM-1.83869e-05 17.9954V16.9956H-1.13892L-0.997814 18.1153L-1.83869e-05 17.9954ZM23.806 13.9963L22.8384 14.2463L23.0299 14.9961H23.806V13.9963ZM32 13.9963V14.9961H33.1389L32.9978 13.8764L32 13.9963ZM8.194 13.9963V14.9961H8.97006L9.17164 14.2463L8.194 13.9963ZM-1.83869e-05 13.9963L-1.00789 13.8764L-1.13892 14.9961H-1.83869e-05V13.9963ZM32 16.9956H23.806V18.9951H32V16.9956ZM22.8283 17.7454C22.4381 19.2447 21.5576 20.5733 20.3247 21.5231C19.0918 22.4728 17.5761 22.9902 16.0151 22.9941V24.9936C18.0253 24.9927 19.9783 24.3294 21.5673 23.1079C23.1562 21.8865 24.2911 20.176 24.7937 18.2453L22.8485 17.7454H22.8283ZM16.0151 22.9941C14.4506 22.9946 12.9303 22.4793 11.6934 21.5292C10.4564 20.579 9.57283 19.248 9.18171 17.7454L7.22644 18.2453C7.729 20.176 8.86389 21.8865 10.4528 23.1079C12.0418 24.3294 13.9948 24.9927 16.005 24.9936V22.9941H16.0151ZM8.20408 16.9956H-1.83869e-05V18.9951H8.194V16.9956H8.20408ZM16.0151 30.9922C12.3305 30.9966 8.77113 29.6662 6.0058 27.2508C3.24047 24.8354 1.45958 21.5015 0.997777 17.8754L-0.997814 18.1153C-0.477217 22.224 1.53767 26.0027 4.66843 28.742C7.79919 31.4812 11.8304 32.9924 16.005 32.9917V30.9922H16.0151ZM31.0123 17.8754C30.5507 21.4998 28.7712 24.8324 26.008 27.2475C23.2448 29.6626 19.6879 30.9942 16.005 30.9922V32.9917C20.1779 32.9899 24.2067 31.4776 27.3353 28.7387C30.464 25.9997 32.4774 22.2223 32.9978 18.1153L31.0022 17.8754H31.0123ZM23.806 14.9961H32V12.9966H23.806V14.9961ZM16.005 8.99756C17.5695 8.99705 19.0898 9.51238 20.3268 10.4625C21.5638 11.4126 22.4473 12.7437 22.8384 14.2463L24.7836 13.7464C24.281 11.8157 23.1462 10.1052 21.5572 8.88375C19.9683 7.66228 18.0153 6.99898 16.005 6.99804V8.99756ZM9.17164 14.2463C9.56276 12.7437 10.4463 11.4126 11.6833 10.4625C12.9203 9.51238 14.4405 8.99705 16.005 8.99756V6.99804C13.993 6.99676 12.0377 7.65904 10.4467 8.88069C8.85575 10.1023 7.71935 11.814 7.21636 13.7464L9.17164 14.2463ZM-1.83869e-05 14.9961H8.194V12.9966H-1.83869e-05V14.9961ZM1.00786 14.1163C1.469 10.4953 3.24555 7.16549 6.00454 4.7508C8.76353 2.33612 12.3156 1.00236 15.9949 0.999511V-1C11.8203 -1.00066 7.78911 0.510523 4.65835 3.24973C1.52759 5.98894 -0.487295 9.76772 -1.00789 13.8764L0.987698 14.1163H1.00786ZM15.9949 0.999511C19.6761 0.99993 23.2305 2.33259 25.9916 4.7475C28.7527 7.16241 30.5307 10.4936 30.9921 14.1163L32.9877 13.8764C32.4675 9.77113 30.4555 5.9951 27.329 3.25634C24.2025 0.517585 20.1761 -0.99579 16.005 -1V0.999511H15.9949Z" fill="white" fill-opacity="0.12"/>
</g>
<path d="M65.76 19.064C64.864 24.28 61.472 27.512 56.128 27.512C49.472 27.512 45.376 22.36 45.376 15.672C45.376 8.952 49.44 3.768 56.128 3.768C61.216 3.768 64.64 6.808 65.632 11.832L61.28 12.024C60.672 9.08 58.784 7.384 56.064 7.384C51.648 7.384 49.696 11.064 49.696 15.672C49.696 20.248 51.68 23.896 56.064 23.896C58.912 23.896 60.832 22.072 61.376 18.84L65.76 19.064ZM68.5688 4.28H72.6648V22.584C72.6648 23.384 73.1128 23.832 73.9128 23.832H75.1928V27H72.8568C70.2968 27 68.5688 25.4 68.5688 22.744V4.28ZM76.782 18.52C76.782 13.144 80.11 9.656 85.198 9.656C89.582 9.656 93.102 12.664 93.166 18.648V19.64H81.102C81.294 22.456 82.766 24.152 85.198 24.152C86.734 24.152 88.142 23.256 88.75 21.784L92.942 22.104C91.918 25.336 88.846 27.384 85.198 27.384C80.11 27.384 76.782 23.896 76.782 18.52ZM81.134 16.92H88.942C88.622 14.008 87.022 12.888 85.198 12.888C82.926 12.888 81.454 14.392 81.134 16.92ZM95.68 15.224C96.352 11.672 99.072 9.656 103.264 9.656C108.16 9.656 110.72 12.184 110.72 16.952V22.776C110.72 23.736 111.136 24.024 111.776 24.024H112.448V27L111.488 27.032C110.176 27.064 107.488 27.096 107.168 24.408C106.368 26.104 104.448 27.384 101.504 27.384C98.08 27.384 95.392 25.56 95.392 22.552C95.392 19.288 97.856 18.168 101.856 17.4L106.592 16.472C106.592 13.848 105.472 12.6 103.264 12.6C101.44 12.6 100.256 13.592 99.872 15.448L95.68 15.224ZM99.648 22.424C99.648 23.576 100.64 24.504 102.624 24.504C104.928 24.504 106.688 22.808 106.688 19.48V19.256L103.456 19.832C101.312 20.216 99.648 20.504 99.648 22.424ZM114.805 10.04H118.645L118.741 13.368C119.381 11.128 120.661 10.04 122.837 10.04H124.405V13.208H122.805C120.085 13.208 118.901 14.616 118.901 17.336V27H114.805V10.04Z" fill="#1F2A37"/>
<defs>
<linearGradient id="paint0_linear_4286_25" x1="16" y1="-0.00390625" x2="16" y2="31.9961" gradientUnits="userSpaceOnUse">
<stop stop-color="#62CCFB"/>
<stop offset="1" stop-color="#0062EA"/>
</linearGradient>
</defs>
</svg>
